<svg xmlns="http://www.w3.org/2000/svg" viewBox="0 0 200 200">
  <defs>
    <linearGradient id="grad1" x1="0%" y1="0%" x2="100%" y2="100%">
      <stop offset="0%" style="stop-color:#0F172A;stop-opacity:1" />
      <stop offset="100%" style="stop-color:#3B82F6;stop-opacity:1" />
    </linearGradient>
  </defs>
  <circle cx="100" cy="100" r="90" fill="url(#grad1)" />
  <path d="M100 35 C110 35 120 45 120 55 L120 80 L145 80 C155 80 165 90 165 100 C165 110 155 120 145 120 L120 120 L120 145 C120 155 110 165 100 165 C90 165 80 155 80 145 L80 120 L55 120 C45 120 35 110 35 100 C35 90 45 80 55 80 L80 80 L80 55 C80 45 90 35 100 35 Z" fill="#06B6D4" />
  <path d="M70 70 L130 130 M130 70 L70 130" stroke="white" stroke-width="15" stroke-linecap="round" />
</svg>
